M48
; DRILL file {KiCad 9.0.4} date 2025-10-04T22:07:19-0400
; FORMAT={-:-/ absolute / metric / decimal}
; #@! TF.CreationDate,2025-10-04T22:07:19-04:00
; #@! TF.GenerationSoftware,Kicad,Pcbnew,9.0.4
; #@! TF.FileFunction,NonPlated,1,2,NPTH
FMAT,2
METRIC
; #@! TA.AperFunction,NonPlated,NPTH,ComponentDrill
T1C1.600
; #@! TA.AperFunction,NonPlated,NPTH,ComponentDrill
T2C1.700
; #@! TA.AperFunction,NonPlated,NPTH,ComponentDrill
T3C1.850
; #@! TA.AperFunction,NonPlated,NPTH,ComponentDrill
T4C2.100
; #@! TA.AperFunction,NonPlated,NPTH,ComponentDrill
T5C2.200
; #@! TA.AperFunction,NonPlated,NPTH,ComponentDrill
T6C3.200
; #@! TA.AperFunction,NonPlated,NPTH,ComponentDrill
T7C4.000
%
G90
G05
T2
X57.64Y-134.26
X67.64Y-113.76
X67.8Y-59.76
X67.8Y-82.26
X67.8Y-134.26
X77.14Y-134.26
X77.8Y-113.76
X77.96Y-59.76
X77.96Y-82.26
X87.3Y-134.26
X87.64Y-113.76
X90.72Y-59.76
X90.8Y-82.26
X97.14Y-134.26
X97.8Y-113.76
X100.88Y-59.76
X100.96Y-82.26
X107.3Y-134.26
X113.8Y-82.26
X113.88Y-59.84
X117.72Y-134.26
X123.96Y-82.26
X124.04Y-59.84
X127.3Y-114.26
X127.88Y-134.26
X136.8Y-59.76
X136.8Y-82.26
X137.22Y-134.26
X137.46Y-114.26
X146.96Y-59.76
X146.96Y-82.26
X147.14Y-114.26
X147.38Y-134.26
X156.72Y-134.26
X157.3Y-114.26
X166.88Y-134.26
X166.96Y-114.26
X176.22Y-134.26
X177.12Y-114.26
X186.38Y-134.26
X249.34Y-110.5
X259.5Y-110.5
T3
X252.965Y-45.34
X257.815Y-45.34
T4
X224.96Y-61.26
X224.96Y-78.26
T5
X252.665Y-42.31
X258.115Y-42.31
T6
X37.5Y-147.0
X38.0Y-49.5
X263.0Y-147.0
X271.0Y-49.0
T7
X62.72Y-134.26
X72.72Y-113.76
X72.88Y-59.76
X72.88Y-82.26
X82.22Y-134.26
X92.72Y-113.76
X95.8Y-59.76
X95.88Y-82.26
X102.22Y-134.26
X118.88Y-82.26
X118.96Y-59.84
X122.8Y-134.26
X132.38Y-114.26
X141.88Y-59.76
X141.88Y-82.26
X142.3Y-134.26
X152.22Y-114.26
X161.8Y-134.26
X172.04Y-114.26
X181.3Y-134.26
X254.42Y-110.5
T1
G00X220.16Y-61.26
M15
G01X220.76Y-61.26
M16
G05
G00X220.16Y-78.26
M15
G01X220.76Y-78.26
M16
G05
M30
