M48
; DRILL file {KiCad 9.0.4} date 2025-10-04T22:07:19-0400
; FORMAT={-:-/ absolute / metric / decimal}
; #@! TF.CreationDate,2025-10-04T22:07:19-04:00
; #@! TF.GenerationSoftware,Kicad,Pcbnew,9.0.4
; #@! TF.FileFunction,Plated,1,2,PTH
FMAT,2
METRIC
; #@! TA.AperFunction,Plated,PTH,ViaDrill
T1C0.300
; #@! TA.AperFunction,Plated,PTH,ComponentDrill
T2C0.762
; #@! TA.AperFunction,Plated,PTH,ComponentDrill
T3C0.800
; #@! TA.AperFunction,Plated,PTH,ComponentDrill
T4C1.000
; #@! TA.AperFunction,Plated,PTH,ComponentDrill
T5C1.500
; #@! TA.AperFunction,Plated,PTH,ComponentDrill
T6C2.500
; #@! TA.AperFunction,Plated,PTH,ComponentDrill
T7C2.540
%
G90
G05
T1
X43.242Y-109.178
X70.05Y-55.088
X88.523Y-108.904
X90.3Y-47.513
X95.93Y-110.378
X105.793Y-97.26
X120.071Y-53.809
X127.022Y-126.997
X138.558Y-54.319
X148.486Y-103.464
X148.527Y-129.18
X177.59Y-107.073
X178.044Y-134.154
X201.108Y-55.547
X204.419Y-109.178
X209.286Y-82.362
X210.044Y-88.905
X211.482Y-74.03
X213.022Y-64.485
X216.001Y-97.26
X216.456Y-56.068
X219.006Y-97.26
X228.183Y-64.485
X230.894Y-55.547
X230.894Y-72.932
X234.161Y-64.918
X239.709Y-52.264
X241.218Y-51.448
X242.384Y-52.794
X242.708Y-78.484
X242.712Y-85.441
X247.394Y-81.669
X248.779Y-52.567
X257.682Y-79.797
X259.645Y-80.419
X260.68Y-58.526
X267.285Y-73.931
X267.405Y-67.465
X269.616Y-62.0
X269.616Y-94.28
T2
X185.42Y-101.74
X185.42Y-104.28
X185.42Y-106.82
X185.42Y-109.36
X185.42Y-111.9
X185.42Y-114.44
X199.42Y-102.32
X199.42Y-104.78
X199.42Y-107.32
X199.42Y-109.86
X199.42Y-112.4
X199.42Y-114.82
T3
X58.49Y-147.26
X66.11Y-147.26
X68.99Y-47.26
X68.99Y-95.26
X68.99Y-101.26
X76.61Y-47.26
X76.61Y-95.26
X76.61Y-101.26
X77.99Y-147.26
X85.61Y-147.26
X88.99Y-101.26
X91.99Y-47.26
X91.99Y-95.76
X96.61Y-101.26
X98.49Y-147.26
X99.61Y-47.26
X99.61Y-95.76
X106.11Y-147.26
X114.99Y-47.26
X114.99Y-95.76
X117.99Y-147.26
X122.61Y-47.26
X122.61Y-95.76
X125.61Y-147.26
X128.49Y-101.76
X136.11Y-101.76
X137.99Y-47.26
X137.99Y-95.76
X138.49Y-147.26
X145.61Y-47.26
X145.61Y-95.76
X146.11Y-147.26
X147.99Y-101.76
X155.61Y-101.76
X157.99Y-147.26
X165.61Y-147.26
X167.99Y-101.76
X175.61Y-101.76
X177.49Y-147.26
X185.11Y-147.26
X236.96Y-57.95
X236.96Y-65.57
X236.96Y-73.95
X236.96Y-81.57
T4
X36.0Y-134.5
X41.5Y-134.5
X42.0Y-61.5
X157.96Y-66.46
X157.96Y-69.0
X157.96Y-71.54
X157.96Y-74.08
X208.96Y-61.56
X208.96Y-64.1
X208.96Y-66.64
X208.96Y-69.18
X208.96Y-71.72
X208.96Y-74.26
X208.96Y-76.8
X208.96Y-79.34
X212.72Y-117.5
X215.26Y-102.26
X215.26Y-117.5
X217.46Y-58.76
X217.46Y-61.26
X217.46Y-63.76
X217.46Y-75.76
X217.46Y-78.26
X217.46Y-80.76
X217.8Y-102.26
X217.8Y-117.5
X220.34Y-102.26
X220.34Y-117.5
X222.88Y-102.26
X222.88Y-117.5
X225.42Y-102.26
X225.42Y-117.5
X227.96Y-102.26
X227.96Y-117.5
X230.5Y-117.5
X231.96Y-58.76
X231.96Y-63.76
X231.96Y-75.76
X231.96Y-80.76
X246.5Y-42.18
X246.5Y-44.72
X246.5Y-47.26
X246.5Y-49.8
X246.5Y-52.34
X246.5Y-54.88
X246.5Y-57.42
X246.5Y-59.96
X246.5Y-62.5
X246.5Y-65.04
X246.5Y-67.58
X246.5Y-70.12
X246.5Y-72.66
X246.5Y-75.2
X246.5Y-77.74
X246.5Y-80.28
X246.5Y-82.82
X246.5Y-85.36
X246.5Y-87.9
X246.5Y-90.44
X264.28Y-42.18
X264.28Y-44.72
X264.28Y-47.26
X264.28Y-49.8
X264.28Y-52.34
X264.28Y-54.88
X264.28Y-57.42
X264.28Y-59.96
X264.28Y-62.5
X264.28Y-65.04
X264.28Y-67.58
X264.28Y-70.12
X264.28Y-72.66
X264.28Y-75.2
X264.28Y-77.74
X264.28Y-80.28
X264.28Y-82.82
X264.28Y-85.36
X264.28Y-87.9
X264.28Y-90.44
T5
X39.0Y-62.5
X39.0Y-133.5
X58.91Y-131.72
X65.26Y-129.18
X68.91Y-111.22
X69.07Y-57.22
X69.07Y-79.72
X75.26Y-108.68
X75.42Y-54.68
X75.42Y-77.18
X78.41Y-131.72
X84.76Y-129.18
X88.91Y-111.22
X91.99Y-57.22
X92.07Y-79.72
X95.26Y-108.68
X98.34Y-54.68
X98.41Y-131.72
X98.42Y-77.18
X104.76Y-129.18
X115.07Y-79.72
X115.15Y-57.3
X118.99Y-131.72
X121.42Y-77.18
X121.5Y-54.76
X125.34Y-129.18
X128.57Y-111.72
X134.92Y-109.18
X138.07Y-57.22
X138.07Y-79.72
X138.49Y-131.72
X144.42Y-54.68
X144.42Y-77.18
X144.84Y-129.18
X148.41Y-111.72
X154.76Y-109.18
X157.99Y-131.72
X164.34Y-129.18
X168.23Y-111.72
X174.58Y-109.18
X177.49Y-131.72
X183.84Y-129.18
X250.61Y-107.96
X256.96Y-105.42
T6
X208.91Y-102.26
X208.91Y-117.5
X234.31Y-102.26
X234.31Y-117.5
T7
X186.46Y-96.9
X186.46Y-119.76
X198.398Y-96.9
X198.398Y-119.76
T5
G00X224.31Y-55.66
M15
G01X225.61Y-55.66
M16
G05
G00X224.31Y-66.86
M15
G01X225.61Y-66.86
M16
G05
G00X224.31Y-72.66
M15
G01X225.61Y-72.66
M16
G05
G00X224.31Y-83.86
M15
G01X225.61Y-83.86
M16
G05
M30
